<?xml version="1.0" encoding="UTF-8"?> <svg xmlns="http://www.w3.org/2000/svg" xmlns:xlink="http://www.w3.org/1999/xlink" version="1.1" id="Layer_1" x="0px" y="0px" viewBox="0 0 198.9 198.9" style="enable-background:new 0 0 198.9 198.9;" xml:space="preserve"> <style type="text/css"> .st0{fill:#FDC30B;} </style> <g> <path class="st0" d="M185.1,181.5v-4.9v-10.3c0-1.4-1-2.6-2.4-2.8c0,0-0.4-0.1-1-0.1c-4.7-0.7-24.8-3.7-38.8-7 c-1-0.2-2-0.5-2.9-0.7c-2.9-0.8-5.4-1.5-7.3-2.3c-0.9-0.4-1.6-0.7-2.1-1c-0.2-0.1-0.4-0.3-0.5-0.3l-0.1-0.1c-0.3-0.4-0.7-1.1-1.1-2 c-1.2-2.7-2.3-6.8-3.2-10.8c-0.7-2.9-1.2-5.8-1.6-7.8c-0.1-0.7-0.2-1.3-0.3-1.8c0.9-0.7,1.7-1.5,2.4-2.3c4.6-4.8,7.1-10.5,8.4-15 c0.6-2.1,1-3.9,1.3-5.3h3.1c0.7,0,1.3-0.2,1.8-0.7c0.7-0.6,1.1-1.3,1.5-1.9c0.6-1.3,1.1-2.8,1.6-4.5c0.8-3.1,1.4-7,2-11.2 c1.4-10.7,2.2-23.2,2.4-26.7c9.6-10.9,12.1-17.4,12.3-17.8c0.3-0.8,0.2-1.7-0.3-2.5c-4.1-6.5-10.1-11.4-16.6-15.3 c-9.8-5.8-21-9.1-29.8-11.1c-8.8-1.9-15.1-2.5-15.2-2.5l-0.4,0C76.6,14.3,61.8,21.3,52.4,28c-9.4,6.7-13.5,13.1-13.6,13.3 c-0.3,0.5-0.5,1.2-0.4,1.8c0.1,1.2,0.6,2.2,1.1,3.2c0.9,1.8,2.2,3.5,3.6,5.3c3.3,4,7.4,8,9.2,9.7c0.1,9.5,1.6,19.5,3.1,27.2 c1.6,8.1,3.1,13.7,3.1,13.8c0.2,0.8,0.8,1.4,1.5,1.8l3.5,1.6c1.9,7.4,5.4,13.2,8.6,17.2c2.2,2.9,4.3,4.8,5.4,5.8 c0.2,1.5,0.3,3,0.3,4.4c0,7.2-2.5,12.2-4.9,15.4c-1.2,1.6-2.4,2.8-3.3,3.5c-0.4,0.4-0.8,0.6-1,0.8l-1.8,0.4c0,0,0,0,0,0L48.2,157 c0,0,0,0,0,0l-12.6,2.6c0,0,0,0,0,0l-19.2,3.9c-1.3,0.3-2.2,1.4-2.2,2.7v17.8c0,1.5,1.3,2.8,2.8,2.8s2.8-1.3,2.8-2.8h0v-5 c3.5-0.3,10.3-0.9,16.7-1.5c4.8-0.5,9.5-0.9,12.7-1.3c2.5-0.3,4.5-0.8,6.1-1.5c2.4-1,4-2.5,4.8-3.8c0.9-1.3,1.1-2.4,1.1-2.7l0,0 l1-8.5l4-0.8l12.2,18c0.4,0.7,1.1,1.1,1.9,1.2c0.8,0.1,1.6-0.1,2.2-0.6l5.3-4.4l6.4,8.5c0.5,0.7,1.4,1.1,2.2,1.1h6.2 c0.8,0,1.5-0.3,2-0.9l8.3-8.7l4.5,4.7c0.6,0.6,1.4,0.9,2.2,0.9s1.6-0.5,2.1-1.2l12.5-17.9c1.1,0.4,2.4,0.7,3.7,1.1 c0,0.1,0,0.1,0,0.2c-0.2,1.2-0.4,2.9-0.4,4.6c0,1.1,0.1,2.2,0.4,3.3c0.3,1.1,0.8,2.3,1.8,3.3c0.4,0.3,0.7,0.5,0.9,0.6 c0.5,0.3,1.1,0.5,1.7,0.6c1.1,0.3,2.5,0.7,4.2,1c5.8,1.1,14.6,2.4,22.1,3.3c4.6,0.6,8.6,1,11.1,1.3l0,5.1c0,1.5,1.3,2.8,2.8,2.8 c1.5,0,2.8-1.3,2.8-2.8L185.1,181.5z M119.8,138.7l-20,17l-17.6-13.5c0.8-2.7,1.2-5.7,1.2-9.1c0-0.2,0-0.4,0-0.6 c0.5,0.2,0.9,0.5,1.5,0.7c4,1.8,9.7,3.7,16.6,3.7c3.8,0,8-0.6,12.4-2c1.7-0.6,3.3-1.3,4.8-2.1C118.9,134.6,119.3,136.6,119.8,138.7 z M122.6,82.1L122.6,82.1c-0.1,0-0.6,0-1.3,0c-2.2,0-6.4,0.1-11.4,0.1c-6.7,0-14.7,0-21-0.1c-3.2,0-5.9,0-7.9,0c-1.2,0-2.2,0-2.7,0 c-0.5-0.2-1.7-0.7-2.9-1.4c-0.7-0.5-1.5-1.1-2.2-1.7c8.6-2.2,17.4-3,25.6-3c9.3,0,17.7,1,23.7,2c1.7,0.3,3.3,0.6,4.6,0.8 c-0.1,0.1-0.3,0.2-0.4,0.4c-1,0.8-2,1.6-2.9,2.2c-0.4,0.3-0.8,0.5-1.1,0.6L122.6,82.1z M133.6,74.6c-1.5-0.4-16.2-4.1-34.6-4.1 c-9.6,0-20.1,1-30.4,4.1l-9.6,0.3c-0.5-4.2-0.9-8.5-1-12.7c12.1-3.7,25.2-5,37.4-5c13.4,0,25.8,1.6,34.9,3.1 c4.5,0.8,8.2,1.6,10.7,2.1c0.6,0.1,1.2,0.3,1.7,0.4c-0.2,2.7-0.5,7.6-1,13L133.6,74.6z M45.6,45.8c-0.5-0.8-1-1.5-1.3-2.1 c-0.1-0.1-0.1-0.2-0.2-0.3c1.4-1.9,5.2-6.4,11.8-11.1c8.7-6.1,22.3-12.5,42.4-13.9c1.7,0.2,12.4,1.3,24.4,5.1 c6.2,1.9,12.7,4.6,18.5,8.1c5.3,3.2,10,7.2,13.3,11.9c-1.1,2.2-4,7.1-10.1,14.2c-5.8-1.5-25.9-6-49.2-6c-12.7,0-26.5,1.4-39.5,5.4 c-1.4-1.3-3.7-3.6-6-6.1C48.2,49.2,46.7,47.4,45.6,45.8z M68.6,103.2c-0.2-0.8-0.8-1.6-1.5-1.9l-3.5-1.6c-0.6-2.2-1.8-7.2-3-13.6 c-0.3-1.8-0.7-3.7-1-5.6l7.6-0.3c0.6,1,1.2,1.9,2,2.6c1.7,1.8,3.7,2.9,5.2,3.7c1.5,0.7,2.6,1.1,2.7,1.1c0.3,0.1,0.5,0.1,0.8,0.1 c0,0,18.7,0.1,32,0.1c3.3,0,6.3,0,8.6,0c1.1,0,2.1,0,2.9,0c0.8,0,1.3,0,1.7-0.1c0.9-0.1,1.6-0.3,2.2-0.7c1.1-0.5,2.2-1.3,3.3-2.1 c2.1-1.6,4.1-3.5,5.3-4.6l7.1,1.2c-0.1,1-0.2,2.1-0.4,3.1c-0.5,4.5-1.2,8.8-1.9,12.1c-0.4,1.7-0.7,3.1-1.1,4 c-0.1,0.2-0.2,0.4-0.2,0.6h-4.1c-1.5,0-2.7,1.1-2.8,2.6h0c0,0.1-0.4,5.4-3,11.1c-1.3,2.9-3.1,5.9-5.6,8.4c-2.5,2.6-5.7,4.8-9.9,6.2 c-3.8,1.3-7.4,1.7-10.7,1.7c-5.9,0-10.8-1.6-14.3-3.2c-1.7-0.8-3.1-1.6-4-2.2c-0.5-0.3-0.8-0.5-1-0.7l-0.2-0.2l0,0l0,0l0,0l0,0 c0,0-2.6-2-5.5-5.8C73.4,115.6,70.2,110.2,68.6,103.2z M46,171.1c-2,0.2-4.5,0.5-7,0.7l0-7.2l7-1.4V171.1z M19.7,173.6v-5l13.6-2.8 l0,6.6c-3.8,0.4-7.6,0.7-10.6,0.9C21.7,173.4,20.6,173.5,19.7,173.6z M55.6,167.6L55.6,167.6c-0.1,0.2-0.3,0.8-1.3,1.4 c-0.6,0.4-1.5,0.8-2.7,1.2v-8.2l4.8-1L55.6,167.6z M81.2,171.4l-9.4-13.9c1.1-0.7,3.3-2.5,5.6-5.5c0.9-1.2,1.8-2.6,2.6-4.2 l15.3,11.8l-9,7.7L81.2,171.4z M101.3,177.3h-3.6l-5.7-7.6l8-6.8l8.7,6.7L101.3,177.3z M118.9,171.7l-4.1-4.3 c0-0.1-0.1-0.1-0.2-0.1c-0.1,0-0.1-0.1-0.2-0.1l-10.2-7.8l17-14.4c0.3,1.3,0.7,2.5,1.1,3.7c0.4,1.3,0.9,2.5,1.4,3.6 c0.5,1.1,1,2.1,1.7,3c0.7,0.9,1.4,1.4,2.3,1.9c0.3,0.2,0.7,0.4,1,0.6L118.9,171.7z M159.5,171c-4.3-0.6-8.4-1.2-11.5-1.8 c-1.6-0.3-2.9-0.6-3.8-0.9c-0.4-0.1-0.7-0.2-0.9-0.3c-0.1-0.1-0.1-0.3-0.2-0.6c-0.1-0.5-0.2-1.1-0.1-1.8c0-1.1,0.1-2.4,0.3-3.4 c7.9,1.8,17.2,3.5,24.7,4.7c5,0.8,9.2,1.5,11.6,1.8v4.7C175.2,173,167.1,172,159.5,171z"></path> <path class="st0" d="M98.5,48.8c7.5,0,13.5-6.1,13.5-13.5V24.5c0-0.7-0.3-1.5-0.8-2s-1.2-0.8-2-0.8H87.8c-0.7,0-1.5,0.3-2,0.8 s-0.8,1.2-0.8,2v10.7C85,42.7,91.1,48.8,98.5,48.8z M90.6,27.3h15.9l0,7.9c0,2.2-0.9,4.2-2.3,5.6c-1.4,1.4-3.4,2.3-5.6,2.3 c-2.2,0-4.2-0.9-5.6-2.3c-1.4-1.4-2.3-3.4-2.3-5.6V27.3z"></path> </g> </svg> 