<?xml version="1.0" encoding="UTF-8"?> <svg xmlns="http://www.w3.org/2000/svg" xmlns:xlink="http://www.w3.org/1999/xlink" version="1.1" id="Layer_1" x="0px" y="0px" viewBox="0 0 216 198.9" style="enable-background:new 0 0 216 198.9;" xml:space="preserve"> <style type="text/css"> .st0{fill:#FDC30B;} </style> <g> <path class="st0" d="M157.4,162.6c0.5-0.5,0.9-1.3,0.9-2.1v-24.4c0-0.8-0.3-1.5-0.9-2.1c-0.5-0.5-1.3-0.9-2.1-0.9H60.9 c-0.8,0-1.5,0.3-2.1,0.9c-0.5,0.5-0.9,1.3-0.9,2.1v24.4c0,0.8,0.3,1.5,0.9,2.1c0.5,0.5,1.3,0.9,2.1,0.9h94.4 C156.1,163.5,156.9,163.1,157.4,162.6z M63.8,139h88.6l0,18.6H63.8V139z"></path> <path class="st0" d="M140.1,145.4H75.3c-1.6,0-2.9,1.3-2.9,2.9c0,1.6,1.3,2.9,2.9,2.9h64.8c1.6,0,2.9-1.3,2.9-2.9 C143.1,146.7,141.8,145.4,140.1,145.4z"></path> <path class="st0" d="M193.2,82.4C193.2,82.4,193.2,82.4,193.2,82.4l0-21.1c0-1.6-1.3-2.9-2.9-2.9l-15.8-0.3l2.3-33.5 c0.1-1.6-1.1-3-2.6-3.1l-13.6-1.3c-1.6-0.2-3,1-3.2,2.6c-0.2,1.6,1,3,2.6,3.2l0,0l10.8,1l-2.4,33.7c0,0,0,0,0,0c0,0,0,0,0,0 l-1.1,18.7h-5.7V47.7c0-0.8-0.3-1.6-0.9-2.1c-0.6-0.6-1.4-0.8-2.2-0.8l-17.8,0.9l-2-16.4c-0.1-0.8-0.5-1.5-1.1-2 c-0.6-0.5-1.4-0.7-2.2-0.6l-48.3,6.9V19l59.7,6.1c1.6,0.2,3-1,3.2-2.6c0.2-1.6-1-3-2.6-3.2l-62.9-6.4c-0.8-0.1-1.6,0.2-2.2,0.7 c-0.6,0.6-1,1.3-1,2.2v18.7l-33.5,4.8c-1.4,0.2-2.5,1.4-2.5,2.9v16.3l-19.6,0c-0.8,0-1.5,0.3-2.1,0.9c-0.5,0.5-0.9,1.3-0.9,2.1V184 c0,0.8,0.3,1.5,0.9,2.1c0.5,0.5,1.3,0.9,2.1,0.9h28.9c1.6,0,2.9-1.3,2.9-2.9c0-1.6-1.3-2.9-2.9-2.9v0h-26V64.2h19.6c0,0,0,0,0,0v0 h6.7l6.6,19.2c0.4,1.2,1.5,2,2.8,2h5.9h88.6h11.3h17.3v58.5v37.3H70.1c-1.6,0-2.9,1.3-2.9,2.9c0,1.6,1.3,2.9,2.9,2.9h120.2 c0.8,0,1.5-0.3,2.1-0.9s0.9-1.3,0.9-2.1v-40.2L193.2,82.4C193.2,82.4,193.2,82.4,193.2,82.4z M155.8,79.5H73V54.8l82.8-4 L155.8,79.5z M59.7,60.3c-0.4-1.2-1.5-2-2.8-2h-5.8V44.6l33.5-4.8c0,0,0,0,0,0l48.7-6.9L135,46l-65,3.1c-1.6,0.1-2.8,1.4-2.8,2.9 v27.5h-0.9L59.7,60.3z M173.2,79.5l1-15.5l13.3,0.2v15.3H173.2z"></path> </g> </svg> 